<svg id="Ebene_1" data-name="Ebene 1" xmlns="http://www.w3.org/2000/svg" xmlns:xlink="http://www.w3.org/1999/xlink" viewBox="0 0 367.61 349.29"><defs><style>.cls-1,.cls-9{fill:none;}.cls-2{clip-path:url(#clip-path);}.cls-3{mask:url(#mask);}.cls-4{opacity:0.13;}.cls-5{fill:#dbdbdb;}.cls-5,.cls-9{stroke:#e3ded8;stroke-miterlimit:10;}.cls-6{clip-path:url(#clip-path-2);}.cls-7{mask:url(#mask-2);}.cls-8{opacity:0.05;}.cls-10{fill:#fff;}.cls-11{filter:url(#luminosity-noclip-2);}.cls-12{filter:url(#luminosity-noclip);}</style><clipPath id="clip-path"><rect class="cls-1" x="-3660.42" y="792" width="1920" height="1080"/></clipPath><filter id="luminosity-noclip" x="-3804.09" y="185.56" width="3933.37" height="3894.65" filterUnits="userSpaceOnUse" color-interpolation-filters="sRGB"><feFlood flood-color="#fff" result="bg"/><feBlend in="SourceGraphic" in2="bg"/></filter><mask id="mask" x="-3804.09" y="185.56" width="3933.37" height="3894.65" maskUnits="userSpaceOnUse"><g class="cls-12"/></mask><clipPath id="clip-path-2"><rect class="cls-1" x="-3660.42" y="-393.88" width="1920" height="1080"/></clipPath><filter id="luminosity-noclip-2" x="-3815.41" y="-894.82" width="4382.84" height="4203.87" filterUnits="userSpaceOnUse" color-interpolation-filters="sRGB"><feFlood flood-color="#fff" result="bg"/><feBlend in="SourceGraphic" in2="bg"/></filter><mask id="mask-2" x="-3815.41" y="-894.82" width="4382.84" height="4203.87" maskUnits="userSpaceOnUse"><g class="cls-11"/></mask></defs><g class="cls-2"><g class="cls-3"><g class="cls-4"><line class="cls-5" x1="1.21" y1="185.92" x2="-3803.73" y2="3990.86"/><line class="cls-5" x1="128.93" y1="274.91" x2="-3676.01" y2="4079.86"/></g></g></g><g class="cls-6"><g class="cls-7"><g class="cls-8"><line class="cls-9" x1="98.45" y1="-894.47" x2="-3706.49" y2="2910.48"/><line class="cls-9" x1="236.33" y1="-815.63" x2="-3568.62" y2="2989.31"/><line class="cls-9" x1="-2955.5" y1="2802.63" x2="22.29" y2="-175.16"/><line class="cls-9" x1="439.36" y1="-585.24" x2="-3365.58" y2="3219.7"/><line class="cls-9" x1="-2954.2" y1="2822.3" x2="41.96" y2="-173.86"/><line class="cls-9" x1="161.62" y1="-300.51" x2="-3080.85" y2="2941.96"/><line class="cls-9" x1="-3028.66" y1="2861.81" x2="81.47" y2="-248.32"/><line class="cls-9" x1="122.45" y1="-310.27" x2="-3090.61" y2="2902.79"/><line class="cls-9" x1="68.31" y1="-277.1" x2="-3057.44" y2="2848.65"/><line class="cls-9" x1="-2775.62" y1="2741.59" x2="-0.03" y2="-34"/><line class="cls-9" x1="1.09" y1="-7.15" x2="-2748.77" y2="2742.7"/><line class="cls-9" x1="-2758.68" y1="2780.58" x2="38.96" y2="-17.07"/><line class="cls-9" x1="64.33" y1="-28.46" x2="-2770.07" y2="2805.95"/><line class="cls-9" x1="-2761.06" y1="2803.93" x2="62.32" y2="-19.45"/><line class="cls-9" x1="58.28" y1="-1.43" x2="-2743.04" y2="2799.89"/><line class="cls-9" x1="-2827.78" y1="2891.62" x2="150" y2="-86.16"/><line class="cls-9" x1="567.08" y1="-496.25" x2="-3237.86" y2="3308.7"/><line class="cls-9" x1="-2826.48" y1="2911.3" x2="169.68" y2="-84.87"/><line class="cls-9" x1="289.34" y1="-211.52" x2="-2953.13" y2="3030.96"/><line class="cls-9" x1="-2900.94" y1="2950.8" x2="209.19" y2="-159.33"/><line class="cls-9" x1="250.17" y1="-221.28" x2="-2962.9" y2="2991.78"/><line class="cls-9" x1="-2810.43" y1="2825.33" x2="83.72" y2="-68.81"/><line class="cls-9" x1="196.03" y1="-188.11" x2="-2929.73" y2="2937.64"/><line class="cls-9" x1="-2794.54" y1="2781.48" x2="39.87" y2="-52.92"/><line class="cls-9" x1="127.16" y1="-175.18" x2="-2916.79" y2="2868.78"/><line class="cls-9" x1="114.66" y1="-176.65" x2="-2918.27" y2="2856.27"/><line class="cls-9" x1="-2831.4" y1="2804.36" x2="62.75" y2="-89.79"/><line class="cls-9" x1="-2826.15" y1="2827.07" x2="85.46" y2="-84.53"/><line class="cls-9" x1="419.24" y1="-690.95" x2="-3385.7" y2="3113.99"/><line class="cls-9" x1="-2967.33" y1="2723.58" x2="28.83" y2="-272.58"/><line class="cls-9" x1="145" y1="-402.73" x2="-3097.48" y2="2839.75"/><line class="cls-9" x1="-3059.27" y1="2745.61" x2="50.86" y2="-364.52"/><line class="cls-9" x1="81.35" y1="-436.96" x2="-3131.71" y2="2776.11"/><line class="cls-9" x1="16.73" y1="-414.27" x2="-3109.03" y2="2711.48"/></g></g></g><polygon class="cls-10" points="322.49 268.86 322.49 303.76 263.56 303.76 208.93 174.64 208.96 174.58 184.4 116.66 184.4 116.66 181.81 110.55 181.76 110.43 132.7 110.43 159.87 174.64 159.84 174.71 197.08 262.4 197.01 262.43 233.76 349.29 367.61 349.29 367.61 268.86 322.49 268.86"/><polygon class="cls-10" points="222.54 142.48 263.56 45.52 322.49 45.52 322.49 243.48 367.61 243.48 367.61 0 233.76 0 197.98 84.56 222.54 142.48"/><polygon class="cls-10" points="146.26 206.8 105.24 303.76 45.12 303.76 45.12 45.52 105.24 45.52 122.01 85.16 171.07 85.16 135.04 0 0 0 0 349.29 135.04 349.29 170.84 264.68 146.26 206.8"/></svg>