  <svg id="hoox-logo" xmlns="http://www.w3.org/2000/svg" xmlns:xlink="http://www.w3.org/1999/xlink" viewBox="0 0 367.61 349.29">
    <style>
      @keyframes shadow {
        0% { filter:  drop-shadow( 0px 0px 2px #00ffff00); }
        50% { filter:  drop-shadow( 0px 0px 4px #0ff); }
        100% { filter:  drop-shadow( 0px 0px 2px #00ffff00); }
      }

      #hoox-logo {
        position: relative;
        border-radius: 1px;
        filter:drop-shadow( 0px 0px 2px #00ffff00);
        animation: shadow 3s ease-out 2;
          background-color: #00000000;
      }
    </style>
    <polygon id="C" style="fill: #00f7ff" class="cls-color"
        points="322.49 268.86 322.49 303.76 263.56 303.76 208.93 174.64 208.96 174.58 184.4 116.66 184.4 116.66 181.81 110.55 181.76 110.43 132.7 110.43 159.87 174.64 159.84 174.71 197.08 262.4 197.01 262.43 233.76 349.29 367.61 349.29 367.61 268.86 322.49 268.86" />
    <polygon class="cls-1"
        points="222.54 142.48 263.56 45.52 322.49 45.52 322.49 243.48 367.61 243.48 367.61 0 233.76 0 197.98 84.56 222.54 142.48" />
    <polygon class="cls-1"
        points="146.26 206.8 105.24 303.76 45.12 303.76 45.12 45.52 105.24 45.52 122.01 85.16 171.07 85.16 135.04 0 0 0 0 349.29 135.04 349.29 170.84 264.68 146.26 206.8" />
</svg>